ffmpeg version N-82167-g5e96558 Copyright (c) 2000-2016 the FFmpeg developers
  built with gcc 5.4.0 (Ubuntu 5.4.0-6ubuntu1~16.04.2) 20160609
  configuration: --prefix=/root/ffmpeg_build --pkg-config-flags=--static --extra-cflags=-I/root/ffmpeg_build/include --extra-ldflags=-L/root/ffmpeg_build/lib --bindir=/root/bin --enable-gpl --enable-libass --enable-libfdk-aac --enable-libfreetype --enable-libmp3lame --enable-libopus --enable-libtheora --enable-libvorbis --enable-libx264 --enable-libx265 --enable-nonfree
  libavutil      55. 35.100 / 55. 35.100
  libavcodec     57. 65.100 / 57. 65.100
  libavformat    57. 57.100 / 57. 57.100
  libavdevice    57.  2.100 / 57.  2.100
  libavfilter     6. 66.100 /  6. 66.100
  libswscale      4.  3.100 /  4.  3.100
  libswresample   2.  4.100 /  2.  4.100
  libpostproc    54.  2.100 / 54.  2.100
Input #0, matroska,webm, from '/media/yubikiri/bot/queue/3AnimePahe_Detective_Conan_-_039_720p_Fansub.mkv':
  Metadata:
    title           : 3|Text||0|0
    ENCODER         : Lavf57.57.100
  Duration: 00:24:26.67, start: 0.000000, bitrate: 926 kb/s
    Stream #0:0: Video: mpeg4 (Advanced Simple Profile), yuv420p, 640x480 [SAR 1:1 DAR 4:3], 23.98 fps, 23.98 tbr, 1k tbn, 23.98 tbc (default)
    Metadata:
      DURATION        : 00:24:26.674000000
    Stream #0:1: Audio: mp3, 48000 Hz, stereo, s16p, 128 kb/s (default)
    Metadata:
      DURATION        : 00:24:26.640000000
[libx264 @ 0x3981a40] using SAR=1/1
[libx264 @ 0x3981a40] using cpu capabilities: MMX2 SSE2Fast SSSE3 SSE4.2 AVX FMA3 AVX2 LZCNT BMI2
[libx264 @ 0x3981a40] profile High, level 3.1
[libx264 @ 0x3981a40] 264 - core 148 r2643 5c65704 - H.264/MPEG-4 AVC codec - Copyleft 2003-2015 - http://www.videolan.org/x264.html - options: cabac=1 ref=8 deblock=1:1:1 analyse=0x3:0x133 me=umh subme=7 psy=1 psy_rd=0.00:0.00 mixed_ref=1 me_range=8 chroma_me=1 trellis=0 8x8dct=1 cqm=0 deadzone=21,11 fast_pskip=1 chroma_qp_offset=0 threads=8 lookahead_threads=2 sliced_threads=0 nr=0 decimate=1 interlaced=0 bluray_compat=0 constrained_intra=0 bframes=3 b_pyramid=2 b_adapt=2 b_bias=0 direct=1 weightb=1 open_gop=0 weightp=2 keyint=240 keyint_min=24 scenecut=40 intra_refresh=0 rc_lookahead=60 rc=crf mbtree=1 crf=27.0 qcomp=0.60 qpmin=0 qpmax=69 qpstep=4 ip_ratio=1.40 aq=1:1.00
[libfdk_aac @ 0x3907e00] Note, the VBR setting is unsupported and only works with some parameter combinations
Output #0, mp4, to '/media/yubikiri/bot/queue/3AnimePahe_Detective_Conan_-_039_720p_Fansub.mkv_encoded.mp4':
  Metadata:
    encoder         : Lavf57.57.100
    Stream #0:0: Video: h264 (libx264) ([33][0][0][0] / 0x0021), yuv420p, 640x480 [SAR 1:1 DAR 4:3], q=-1--1, 23.98 fps, 24k tbn, 23.98 tbc (default)
    Metadata:
      encoder         : Lavc57.65.100 libx264
    Side data:
      cpb: bitrate max/min/avg: 0/0/0 buffer size: 0 vbv_delay: -1
    Stream #0:1: Audio: aac (libfdk_aac) (HE-AACv2) ([64][0][0][0] / 0x0040), 48000 Hz, stereo, s16, 48 kb/s (default)
    Metadata:
      encoder         : Lavc57.65.100 libfdk_aac
Stream mapping:
  Stream #0:0 -> #0:0 (mpeg4 (native) -> h264 (libx264))
  Stream #0:1 -> #0:1 (mp3 (native) -> aac (libfdk_aac))
Press [q] to stop, [?] for help
frame=  113 fps=0.0 q=32.0 size=     100kB time=00:00:04.88 bitrate= 167.1kbits/s dup=1 drop=0 speed=9.38x    frame=  158 fps=154 q=32.0 size=     226kB time=00:00:06.76 bitrate= 273.4kbits/s dup=1 drop=0 speed=6.61x    frame=  198 fps=130 q=32.0 size=     328kB time=00:00:08.42 bitrate= 319.1kbits/s dup=1 drop=0 speed=5.52x    frame=  242 fps=119 q=32.0 size=     423kB time=00:00:10.26 bitrate= 337.7kbits/s dup=1 drop=0 speed=5.06x    frame=  289 fps=114 q=32.0 size=     526kB time=00:00:12.22 bitrate= 352.6kbits/s dup=1 drop=0 speed=4.82x    frame=  334 fps=108 q=32.0 size=     646kB time=00:00:14.10 bitrate= 375.3kbits/s dup=1 drop=0 speed=4.56x    frame=  386 fps=107 q=32.0 size=     743kB time=00:00:16.23 bitrate= 374.7kbits/s dup=1 drop=0 speed=4.52x    frame=  429 fps=105 q=32.0 size=     840kB time=00:00:18.02 bitrate= 381.6kbits/s dup=1 drop=0 speed= 4.4x    frame=  484 fps=105 q=32.0 size=     961kB time=00:00:20.33 bitrate= 387.3kbits/s dup=1 drop=0 speed=4.43x    frame=  530 fps=104 q=32.0 size=    1050kB time=00:00:22.25 bitrate= 386.7kbits/s dup=1 drop=0 speed=4.36x    frame=  588 fps=105 q=32.0 size=    1141kB time=00:00:24.68 bitrate= 378.7kbits/s dup=1 drop=0 speed= 4.4x    frame=  677 fps=111 q=32.0 size=    1242kB time=00:00:28.39 bitrate= 358.2kbits/s dup=1 drop=0 speed=4.65x    frame=  730 fps=110 q=32.0 size=    1361kB time=00:00:30.61 bitrate= 364.2kbits/s dup=1 drop=0 speed=4.63x    frame=  777 fps=109 q=32.0 size=    1499kB time=00:00:32.57 bitrate= 376.9kbits/s dup=1 drop=0 speed=4.58x    frame=  847 fps=111 q=32.0 size=    1587kB time=00:00:35.47 bitrate= 366.5kbits/s dup=1 drop=0 speed=4.66x    frame=  899 fps=111 q=32.0 size=    1679kB time=00:00:37.65 bitrate= 365.3kbits/s dup=1 drop=0 speed=4.64x    frame=  957 fps=111 q=32.0 size=    1782kB time=00:00:40.08 bitrate= 364.2kbits/s dup=1 drop=0 speed=4.65x    frame=  996 fps=109 q=32.0 size=    1857kB time=00:00:41.70 bitrate= 364.8kbits/s dup=1 drop=0 speed=4.56x    frame= 1052 fps=109 q=32.0 size=    1979kB time=00:00:44.05 bitrate= 368.0kbits/s dup=1 drop=0 speed=4.57x    frame= 1134 fps=112 q=32.0 size=    2073kB time=00:00:47.46 bitrate= 357.7kbits/s dup=1 drop=0 speed=4.67x    frame= 1211 fps=114 q=32.0 size=    2204kB time=00:00:50.66 bitrate= 356.4kbits/s dup=1 drop=0 speed=4.75x    frame= 1261 fps=113 q=32.0 size=    2300kB time=00:00:52.75 bitrate= 357.1kbits/s dup=1 drop=0 speed=4.73x    frame= 1293 fps=111 q=32.0 size=    2390kB time=00:00:54.08 bitrate= 362.1kbits/s dup=1 drop=0 speed=4.63x    frame= 1340 fps=110 q=32.0 size=    2522kB time=00:00:56.04 bitrate= 368.6kbits/s dup=1 drop=0 speed= 4.6x    frame= 1382 fps=109 q=32.0 size=    2628kB time=00:00:57.79 bitrate= 372.6kbits/s dup=1 drop=0 speed=4.55x    frame= 1438 fps=109 q=32.0 size=    2707kB time=00:01:00.13 bitrate= 368.8kbits/s dup=1 drop=0 speed=4.56x    frame= 1483 fps=108 q=32.0 size=    2814kB time=00:01:02.05 bitrate= 371.5kbits/s dup=1 drop=0 speed=4.53x    frame= 1541 fps=109 q=32.0 size=    2916kB time=00:01:04.44 bitrate= 370.6kbits/s dup=1 drop=0 speed=4.54x    frame= 1605 fps=109 q=32.0 size=    3027kB time=00:01:07.09 bitrate= 369.6kbits/s dup=1 drop=0 speed=4.56x    frame= 1652 fps=109 q=32.0 size=    3152kB time=00:01:09.05 bitrate= 373.9kbits/s dup=1 drop=0 speed=4.54x    frame= 1702 fps=108 q=32.0 size=    3263kB time=00:01:11.14 bitrate= 375.7kbits/s dup=1 drop=0 speed=4.53x    frame= 1754 fps=108 q=32.0 size=    3379kB time=00:01:13.32 bitrate= 377.5kbits/s dup=1 drop=0 speed=4.52x    frame= 1800 fps=108 q=32.0 size=    3489kB time=00:01:15.24 bitrate= 379.9kbits/s dup=1 drop=0 speed= 4.5x    frame= 1852 fps=107 q=32.0 size=    3612kB time=00:01:17.41 bitrate= 382.2kbits/s dup=1 drop=0 speed=4.49x    frame= 1898 fps=107 q=32.0 size=    3694kB time=00:01:19.33 bitrate= 381.4kbits/s dup=1 drop=0 speed=4.47x    frame= 1946 fps=106 q=32.0 size=    3779kB time=00:01:21.30 bitrate= 380.8kbits/s dup=1 drop=0 speed=4.45x    frame= 1990 fps=106 q=32.0 size=    3865kB time=00:01:23.17 bitrate= 380.6kbits/s dup=1 drop=0 speed=4.43x    frame= 2034 fps=105 q=32.0 size=    3956kB time=00:01:24.97 bitrate= 381.4kbits/s dup=1 drop=0 speed= 4.4x    frame= 2065 fps=103 q=32.0 size=    4004kB time=00:01:26.29 bitrate= 380.1kbits/s dup=1 drop=0 speed=4.31x    frame= 2126 fps=104 q=32.0 size=    4096kB time=00:01:28.81 bitrate= 377.8kbits/s dup=1 drop=0 speed=4.33x    frame= 2166 fps=103 q=32.0 size=    4175kB time=00:01:30.51 bitrate= 377.8kbits/s dup=1 drop=0 speed=4.31x    frame= 2237 fps=104 q=32.0 size=    4247kB time=00:01:33.46 bitrate= 372.2kbits/s dup=1 drop=0 speed=4.34x    frame= 2338 fps=106 q=32.0 size=    4386kB time=00:01:37.68 bitrate= 367.8kbits/s dup=1 drop=0 speed=4.44x    frame= 2419 fps=107 q=32.0 size=    4479kB time=00:01:41.05 bitrate= 363.0kbits/s dup=1 drop=0 speed=4.48x    frame= 2489 fps=108 q=32.0 size=    4562kB time=00:01:43.95 bitrate= 359.5kbits/s dup=1 drop=0 speed=4.51x    frame= 2545 fps=108 q=32.0 size=    4663kB time=00:01:46.30 bitrate= 359.3kbits/s dup=1 drop=0 speed=4.51x    frame= 2588 fps=107 q=32.0 size=    4759kB time=00:01:48.13 bitrate= 360.5kbits/s dup=1 drop=0 speed=4.49x    frame= 2630 fps=107 q=32.0 size=    4833kB time=00:01:49.88 bitrate= 360.3kbits/s dup=1 drop=0 speed=4.47x    frame= 2695 fps=107 q=32.0 size=    4944kB time=00:01:52.57 bitrate= 359.8kbits/s dup=1 drop=0 speed=4.48x    frame= 2763 fps=108 q=32.0 size=    5030kB time=00:01:55.39 bitrate= 357.1kbits/s dup=1 drop=0 speed=4.51x    frame= 2812 fps=108 q=32.0 size=    5171kB time=00:01:57.44 bitrate= 360.7kbits/s dup=1 drop=0 speed= 4.5x    frame= 2874 fps=108 q=32.0 size=    5276kB time=00:02:00.04 bitrate= 360.0kbits/s dup=1 drop=0 speed=4.51x    frame= 2937 fps=108 q=32.0 size=    5371kB time=00:02:02.64 bitrate= 358.8kbits/s dup=1 drop=0 speed=4.52x    frame= 3000 fps=109 q=32.0 size=    5430kB time=00:02:05.29 bitrate= 355.0kbits/s dup=1 drop=0 speed=4.53x    frame= 3054 fps=109 q=32.0 size=    5529kB time=00:02:07.55 bitrate= 355.1kbits/s dup=1 drop=0 speed=4.53x    frame= 3114 fps=109 q=32.0 size=    5610kB time=00:02:10.02 bitrate= 353.5kbits/s dup=1 drop=0 speed=4.53x    frame= 3170 fps=109 q=32.0 size=    5680kB time=00:02:12.37 bitrate= 351.5kbits/s dup=1 drop=0 speed=4.53x    frame= 3218 fps=108 q=32.0 size=    5772kB time=00:02:14.37 bitrate= 351.9kbits/s dup=1 drop=0 speed=4.52x    frame= 3287 fps=109 q=32.0 size=    5882kB time=00:02:17.23 bitrate= 351.1kbits/s dup=1 drop=0 speed=4.54x    frame= 3349 fps=109 q=32.0 size=    5999kB time=00:02:19.84 bitrate= 351.4kbits/s dup=1 drop=0 speed=4.55x    frame= 3391 fps=108 q=32.0 size=    6120kB time=00:02:21.59 bitrate= 354.1kbits/s dup=1 drop=0 speed=4.53x    frame= 3447 fps=109 q=32.0 size=    6214kB time=00:02:23.93 bitrate= 353.6kbits/s dup=1 drop=0 speed=4.53x    frame= 3490 fps=108 q=32.0 size=    6323kB time=00:02:25.72 bitrate= 355.4kbits/s dup=1 drop=0 speed=4.52x    frame= 3548 fps=108 q=32.0 size=    6458kB time=00:02:28.16 bitrate= 357.1kbits/s dup=1 drop=0 speed=4.52x    frame= 3637 fps=109 q=32.0 size=    6555kB time=00:02:31.83 bitrate= 353.7kbits/s dup=1 drop=0 speed=4.56x    frame= 3733 fps=111 q=32.0 size=    6609kB time=00:02:35.84 bitrate= 347.4kbits/s dup=1 drop=0 speed=4.61x    frame= 3780 fps=110 q=32.0 size=    6718kB time=00:02:37.80 bitrate= 348.7kbits/s dup=1 drop=0 speed= 4.6x    frame= 3865 fps=111 q=32.0 size=    6825kB time=00:02:41.34 bitrate= 346.5kbits/s dup=1 drop=0 speed=4.63x    frame= 3943 fps=112 q=32.0 size=    6945kB time=00:02:44.63 bitrate= 345.6kbits/s dup=1 drop=0 speed=4.66x    frame= 4009 fps=112 q=32.0 size=    7021kB time=00:02:47.36 bitrate= 343.7kbits/s dup=1 drop=0 speed=4.67x    frame= 4054 fps=112 q=32.0 size=    7163kB time=00:02:49.23 bitrate= 346.7kbits/s dup=1 drop=0 speed=4.66x    frame= 4093 fps=111 q=32.0 size=    7272kB time=00:02:50.85 bitrate= 348.6kbits/s dup=1 drop=0 speed=4.63x    frame= 4135 fps=111 q=32.0 size=    7387kB time=00:02:52.65 bitrate= 350.5kbits/s dup=1 drop=0 speed=4.62x    frame= 4197 fps=111 q=32.0 size=    7508kB time=00:02:55.21 bitrate= 351.0kbits/s dup=1 drop=0 speed=4.62x    frame= 4301 fps=112 q=32.0 size=    7680kB time=00:02:59.56 bitrate= 350.4kbits/s dup=1 drop=0 speed=4.68x    frame= 4428 fps=114 q=32.0 size=    7828kB time=00:03:04.85 bitrate= 346.9kbits/s dup=1 drop=0 speed=4.75x    frame= 4560 fps=116 q=32.0 size=    8003kB time=00:03:10.35 bitrate= 344.4kbits/s dup=1 drop=0 speed=4.83x    frame= 4677 fps=117 q=32.0 size=    8160kB time=00:03:15.22 bitrate= 342.4kbits/s dup=1 drop=0 speed=4.89x    frame= 4794 fps=119 q=32.0 size=    8377kB time=00:03:20.12 bitrate= 342.9kbits/s dup=1 drop=0 speed=4.95x    frame= 4930 fps=121 q=32.0 size=    8540kB time=00:03:25.76 bitrate= 340.0kbits/s dup=1 drop=0 speed=5.03x    frame= 5042 fps=122 q=32.0 size=    8738kB time=00:03:30.45 bitrate= 340.1kbits/s dup=1 drop=0 speed=5.08x    frame= 5183 fps=124 q=32.0 size=    8883kB time=00:03:36.34 bitrate= 336.4kbits/s dup=1 drop=0 speed=5.16x    frame= 5265 fps=124 q=32.0 size=    9062kB time=00:03:39.75 bitrate= 337.8kbits/s dup=1 drop=0 speed=5.18x    frame= 5415 fps=126 q=32.0 size=    9228kB time=00:03:46.02 bitrate= 334.4kbits/s dup=1 drop=0 speed=5.26x    frame= 5541 fps=128 q=32.0 size=    9367kB time=00:03:51.27 bitrate= 331.8kbits/s dup=1 drop=0 speed=5.32x    frame= 5663 fps=129 q=32.0 size=    9507kB time=00:03:56.35 bitrate= 329.5kbits/s dup=1 drop=0 speed=5.38x    frame= 5771 fps=130 q=32.0 size=    9667kB time=00:04:00.87 bitrate= 328.8kbits/s dup=1 drop=0 speed=5.42x    frame= 5888 fps=131 q=32.0 size=    9809kB time=00:04:05.73 bitrate= 327.0kbits/s dup=1 drop=0 speed=5.47x    frame= 6026 fps=133 q=32.0 size=    9942kB time=00:04:11.49 bitrate= 323.8kbits/s dup=1 drop=0 speed=5.53x    frame= 6154 fps=134 q=32.0 size=   10141kB time=00:04:16.83 bitrate= 323.5kbits/s dup=1 drop=0 speed=5.59x    frame= 6322 fps=136 q=32.0 size=   10270kB time=00:04:23.83 bitrate= 318.9kbits/s dup=1 drop=0 speed=5.68x    frame= 6479 fps=138 q=32.0 size=   10393kB time=00:04:30.40 bitrate= 314.9kbits/s dup=1 drop=0 speed=5.76x    frame= 6602 fps=139 q=32.0 size=   10571kB time=00:04:35.52 bitrate= 314.3kbits/s dup=1 drop=0 speed=5.81x    frame= 6732 fps=140 q=32.0 size=   10709kB time=00:04:40.93 bitrate= 312.3kbits/s dup=1 drop=0 speed=5.86x    frame= 6864 fps=142 q=32.0 size=   10855kB time=00:04:46.44 bitrate= 310.4kbits/s dup=1 drop=0 speed=5.91x    frame= 6954 fps=142 q=32.0 size=   10988kB time=00:04:50.19 bitrate= 310.2kbits/s dup=1 drop=0 speed=5.92x    frame= 7024 fps=142 q=32.0 size=   11120kB time=00:04:53.09 bitrate= 310.8kbits/s dup=1 drop=0 speed=5.92x    frame= 7148 fps=143 q=32.0 size=   11256kB time=00:04:58.26 bitrate= 309.2kbits/s dup=1 drop=0 speed=5.97x    frame= 7203 fps=143 q=32.0 size=   11375kB time=00:05:00.56 bitrate= 310.0kbits/s dup=1 drop=0 speed=5.95x    frame= 7271 fps=143 q=32.0 size=   11508kB time=00:05:03.42 bitrate= 310.7kbits/s dup=1 drop=0 speed=5.95x    frame= 7368 fps=143 q=32.0 size=   11631kB time=00:05:07.47 bitrate= 309.9kbits/s dup=1 drop=0 speed=5.97x    frame= 7467 fps=144 q=32.0 size=   11708kB time=00:05:11.57 bitrate= 307.8kbits/s dup=1 drop=0 speed=5.99x    frame= 7513 fps=143 q=32.0 size=   11767kB time=00:05:13.49 bitrate= 307.5kbits/s dup=1 drop=0 speed=5.97x    frame= 7604 fps=143 q=32.0 size=   11844kB time=00:05:17.29 bitrate= 305.8kbits/s dup=1 drop=0 speed=5.98x    frame= 7726 fps=144 q=32.0 size=   11945kB time=00:05:22.36 bitrate= 303.5kbits/s dup=1 drop=0 speed=6.02x    frame= 7809 fps=144 q=32.0 size=   12035kB time=00:05:25.86 bitrate= 302.5kbits/s dup=1 drop=0 speed=6.03x    frame= 7893 fps=145 q=32.0 size=   12145kB time=00:05:29.36 bitrate= 302.1kbits/s dup=1 drop=0 speed=6.04x    frame= 8059 fps=146 q=32.0 size=   12272kB time=00:05:36.27 bitrate= 299.0kbits/s dup=1 drop=0 speed=6.11x    frame= 8205 fps=148 q=32.0 size=   12390kB time=00:05:42.37 bitrate= 296.4kbits/s dup=1 drop=0 speed=6.16x    frame= 8316 fps=148 q=32.0 size=   12548kB time=00:05:47.03 bitrate= 296.2kbits/s dup=1 drop=0 speed=6.19x    frame= 8428 fps=149 q=32.0 size=   12698kB time=00:05:51.68 bitrate= 295.8kbits/s dup=1 drop=0 speed=6.22x    frame= 8519 fps=149 q=32.0 size=   12831kB time=00:05:55.47 bitrate= 295.7kbits/s dup=1 drop=0 speed=6.23x    frame= 8608 fps=150 q=32.0 size=   13002kB time=00:05:59.19 bitrate= 296.5kbits/s dup=1 drop=0 speed=6.24x    frame= 8729 fps=150 q=32.0 size=   13150kB time=00:06:04.22 bitrate= 295.8kbits/s dup=1 drop=0 speed=6.27x    frame= 8918 fps=152 q=32.0 size=   13288kB time=00:06:12.11 bitrate= 292.5kbits/s dup=1 drop=0 speed=6.35x    frame= 9090 fps=154 q=32.0 size=   13435kB time=00:06:19.28 bitrate= 290.2kbits/s dup=1 drop=0 speed=6.42x    frame= 9218 fps=155 q=32.0 size=   13529kB time=00:06:24.61 bitrate= 288.2kbits/s dup=1 drop=0 speed=6.46x    frame= 9303 fps=155 q=32.0 size=   13613kB time=00:06:28.16 bitrate= 287.3kbits/s dup=1 drop=0 speed=6.46x    frame= 9382 fps=155 q=32.0 size=   13683kB time=00:06:31.44 bitrate= 286.3kbits/s dup=1 drop=0 speed=6.46x    frame= 9459 fps=155 q=32.0 size=   13748kB time=00:06:34.68 bitrate= 285.3kbits/s dup=1 drop=0 speed=6.46x    frame= 9554 fps=155 q=32.0 size=   13833kB time=00:06:38.61 bitrate= 284.3kbits/s dup=1 drop=0 speed=6.47x    frame= 9641 fps=155 q=32.0 size=   13916kB time=00:06:42.28 bitrate= 283.4kbits/s dup=1 drop=0 speed=6.48x    frame= 9730 fps=155 q=32.0 size=   13980kB time=00:06:45.99 bitrate= 282.1kbits/s dup=1 drop=0 speed=6.48x    frame= 9832 fps=156 q=32.0 size=   14065kB time=00:06:50.21 bitrate= 280.9kbits/s dup=1 drop=0 speed= 6.5x    frame= 9931 fps=156 q=32.0 size=   14133kB time=00:06:54.35 bitrate= 279.4kbits/s dup=1 drop=0 speed=6.51x    frame=10019 fps=156 q=32.0 size=   14220kB time=00:06:58.02 bitrate= 278.7kbits/s dup=1 drop=0 speed=6.52x    frame=10078 fps=156 q=32.0 size=   14275kB time=00:07:00.50 bitrate= 278.1kbits/s dup=1 drop=0 speed=6.51x    frame=10132 fps=156 q=32.0 size=   14362kB time=00:07:02.76 bitrate= 278.3kbits/s dup=1 drop=0 speed=6.49x    frame=10202 fps=155 q=32.0 size=   14496kB time=00:07:05.66 bitrate= 279.0kbits/s dup=1 drop=0 speed=6.48x    frame=10288 fps=155 q=32.0 size=   14565kB time=00:07:09.24 bitrate= 278.0kbits/s dup=1 drop=0 speed=6.49x    frame=10378 fps=156 q=32.0 size=   14682kB time=00:07:13.00 bitrate= 277.8kbits/s dup=1 drop=0 speed=6.49x    frame=10438 fps=155 q=32.0 size=   14777kB time=00:07:15.52 bitrate= 277.9kbits/s dup=1 drop=0 speed=6.48x    frame=10506 fps=155 q=32.0 size=   14880kB time=00:07:18.33 bitrate= 278.1kbits/s dup=1 drop=0 speed=6.48x    frame=10597 fps=155 q=32.0 size=   14991kB time=00:07:22.13 bitrate= 277.8kbits/s dup=1 drop=0 speed=6.48x    frame=10683 fps=155 q=32.0 size=   15104kB time=00:07:25.71 bitrate= 277.6kbits/s dup=1 drop=0 speed=6.49x    frame=10765 fps=156 q=32.0 size=   15170kB time=00:07:29.17 bitrate= 276.7kbits/s dup=1 drop=0 speed=6.49x    frame=10844 fps=156 q=32.0 size=   15274kB time=00:07:32.45 bitrate= 276.5kbits/s dup=1 drop=0 speed=6.49x    frame=10935 fps=156 q=32.0 size=   15347kB time=00:07:36.25 bitrate= 275.5kbits/s dup=1 drop=0 speed= 6.5x    frame=11037 fps=156 q=32.0 size=   15435kB time=00:07:40.48 bitrate= 274.6kbits/s dup=1 drop=0 speed=6.51x    frame=11126 fps=156 q=32.0 size=   15488kB time=00:07:44.19 bitrate= 273.3kbits/s dup=1 drop=0 speed=6.52x    frame=11203 fps=156 q=32.0 size=   15580kB time=00:07:47.43 bitrate= 273.0kbits/s dup=1 drop=0 speed=6.51x    frame=11299 fps=156 q=32.0 size=   15643kB time=00:07:51.44 bitrate= 271.8kbits/s dup=1 drop=0 speed=6.52x    frame=11391 fps=157 q=32.0 size=   15724kB time=00:07:55.24 bitrate= 271.0kbits/s dup=1 drop=0 speed=6.53x    frame=11467 fps=157 q=32.0 size=   15824kB time=00:07:58.44 bitrate= 270.9kbits/s dup=1 drop=0 speed=6.53x    frame=11552 fps=157 q=32.0 size=   15911kB time=00:08:01.98 bitrate= 270.4kbits/s dup=1 drop=0 speed=6.53x    frame=11637 fps=157 q=32.0 size=   16000kB time=00:08:05.52 bitrate= 270.0kbits/s dup=1 drop=0 speed=6.54x    frame=11714 fps=157 q=32.0 size=   16079kB time=00:08:08.72 bitrate= 269.5kbits/s dup=1 drop=0 speed=6.54x    frame=11768 fps=156 q=32.0 size=   16195kB time=00:08:10.98 bitrate= 270.2kbits/s dup=1 drop=0 speed=6.52x    frame=11845 fps=156 q=32.0 size=   16334kB time=00:08:14.18 bitrate= 270.8kbits/s dup=1 drop=0 speed=6.52x    frame=11931 fps=156 q=32.0 size=   16411kB time=00:08:17.77 bitrate= 270.1kbits/s dup=1 drop=0 speed=6.53x    frame=12003 fps=156 q=32.0 size=   16474kB time=00:08:20.80 bitrate= 269.5kbits/s dup=1 drop=0 speed=6.52x    frame=12084 fps=156 q=32.0 size=   16561kB time=00:08:24.17 bitrate= 269.1kbits/s dup=1 drop=0 speed=6.52x    frame=12148 fps=156 q=32.0 size=   16663kB time=00:08:26.81 bitrate= 269.3kbits/s dup=1 drop=0 speed=6.51x    frame=12251 fps=156 q=32.0 size=   16738kB time=00:08:31.12 bitrate= 268.3kbits/s dup=1 drop=0 speed=6.53x    frame=12346 fps=157 q=32.0 size=   16832kB time=00:08:35.09 bitrate= 267.7kbits/s dup=1 drop=0 speed=6.54x    frame=12396 fps=156 q=32.0 size=   16919kB time=00:08:37.18 bitrate= 268.0kbits/s dup=1 drop=0 speed=6.52x    frame=12452 fps=156 q=32.0 size=   16983kB time=00:08:39.48 bitrate= 267.8kbits/s dup=1 drop=0 speed=6.51x    frame=12538 fps=156 q=32.0 size=   17063kB time=00:08:43.11 bitrate= 267.2kbits/s dup=1 drop=0 speed=6.51x    frame=12614 fps=156 q=32.0 size=   17170kB time=00:08:46.31 bitrate= 267.2kbits/s dup=1 drop=0 speed=6.51x    frame=12713 fps=156 q=32.0 size=   17245kB time=00:08:50.41 bitrate= 266.3kbits/s dup=1 drop=0 speed=6.52x    frame=12798 fps=156 q=32.0 size=   17339kB time=00:08:53.95 bitrate= 266.0kbits/s dup=1 drop=0 speed=6.52x    frame=12896 fps=157 q=32.0 size=   17417kB time=00:08:58.04 bitrate= 265.2kbits/s dup=1 drop=0 speed=6.53x    frame=12976 fps=157 q=32.0 size=   17487kB time=00:09:01.37 bitrate= 264.6kbits/s dup=1 drop=0 speed=6.53x    frame=13032 fps=156 q=32.0 size=   17599kB time=00:09:03.68 bitrate= 265.2kbits/s dup=1 drop=0 speed=6.52x    frame=13117 fps=156 q=32.0 size=   17719kB time=00:09:07.26 bitrate= 265.2kbits/s dup=1 drop=0 speed=6.52x    frame=13211 fps=157 q=32.0 size=   17816kB time=00:09:11.14 bitrate= 264.8kbits/s dup=1 drop=0 speed=6.53x    frame=13294 fps=157 q=32.0 size=   17891kB time=00:09:14.64 bitrate= 264.3kbits/s dup=1 drop=0 speed=6.53x    frame=13381 fps=157 q=32.0 size=   17966kB time=00:09:18.27 bitrate= 263.6kbits/s dup=1 drop=0 speed=6.54x    frame=13451 fps=157 q=32.0 size=   18064kB time=00:09:21.17 bitrate= 263.7kbits/s dup=1 drop=0 speed=6.53x    frame=13542 fps=157 q=32.0 size=   18162kB time=00:09:24.97 bitrate= 263.3kbits/s dup=1 drop=0 speed=6.54x    frame=13616 fps=157 q=32.0 size=   18273kB time=00:09:28.04 bitrate= 263.5kbits/s dup=1 drop=0 speed=6.53x    frame=13712 fps=157 q=32.0 size=   18342kB time=00:09:32.05 bitrate= 262.7kbits/s dup=1 drop=0 speed=6.54x    frame=13793 fps=157 q=32.0 size=   18417kB time=00:09:35.46 bitrate= 262.2kbits/s dup=1 drop=0 speed=6.54x    frame=13876 fps=157 q=29.0 size=   18527kB time=00:09:38.92 bitrate= 262.2kbits/s dup=1 drop=0 speed=6.55x    frame=13971 fps=157 q=32.0 size=   18604kB time=00:09:42.84 bitrate= 261.5kbits/s dup=1 drop=0 speed=6.55x    frame=14030 fps=157 q=32.0 size=   18702kB time=00:09:45.32 bitrate= 261.7kbits/s dup=1 drop=0 speed=6.54x    frame=14105 fps=157 q=32.0 size=   18762kB time=00:09:48.43 bitrate= 261.2kbits/s dup=1 drop=0 speed=6.54x    frame=14172 fps=157 q=32.0 size=   18847kB time=00:09:51.25 bitrate= 261.1kbits/s dup=1 drop=0 speed=6.54x    frame=14247 fps=157 q=32.0 size=   18892kB time=00:09:54.36 bitrate= 260.4kbits/s dup=1 drop=0 speed=6.53x    frame=14321 fps=157 q=32.0 size=   18944kB time=00:09:57.44 bitrate= 259.8kbits/s dup=1 drop=0 speed=6.53x    frame=14377 fps=156 q=32.0 size=   19000kB time=00:09:59.78 bitrate= 259.5kbits/s dup=1 drop=0 speed=6.52x    frame=14439 fps=156 q=32.0 size=   19055kB time=00:10:02.39 bitrate= 259.1kbits/s dup=1 drop=0 speed=6.51x    frame=14511 fps=156 q=32.0 size=   19119kB time=00:10:05.37 bitrate= 258.7kbits/s dup=1 drop=0 speed=6.51x    frame=14604 fps=156 q=32.0 size=   19197kB time=00:10:09.25 bitrate= 258.1kbits/s dup=1 drop=0 speed=6.52x    frame=14727 fps=157 q=32.0 size=   19265kB time=00:10:14.37 bitrate= 256.9kbits/s dup=1 drop=0 speed=6.54x    frame=14829 fps=157 q=32.0 size=   19343kB time=00:10:18.64 bitrate= 256.1kbits/s dup=1 drop=0 speed=6.55x    frame=14919 fps=157 q=32.0 size=   19396kB time=00:10:22.40 bitrate= 255.3kbits/s dup=1 drop=0 speed=6.55x    frame=14990 fps=157 q=32.0 size=   19475kB time=00:10:25.38 bitrate= 255.1kbits/s dup=1 drop=0 speed=6.55x    frame=15075 fps=157 q=32.0 size=   19548kB time=00:10:28.92 bitrate= 254.6kbits/s dup=1 drop=0 speed=6.55x    frame=15146 fps=157 q=32.0 size=   19613kB time=00:10:31.87 bitrate= 254.3kbits/s dup=1 drop=0 speed=6.55x    frame=15199 fps=157 q=32.0 size=   19668kB time=00:10:34.09 bitrate= 254.1kbits/s dup=1 drop=0 speed=6.54x    frame=15244 fps=156 q=32.0 size=   19776kB time=00:10:35.96 bitrate= 254.7kbits/s dup=1 drop=0 speed=6.52x    frame=15294 fps=156 q=32.0 size=   19855kB time=00:10:38.05 bitrate= 254.9kbits/s dup=1 drop=0 speed=6.51x    frame=15370 fps=156 q=32.0 size=   19899kB time=00:10:41.21 bitrate= 254.2kbits/s dup=1 drop=0 speed=6.51x    frame=15408 fps=156 q=32.0 size=   19972kB time=00:10:42.79 bitrate= 254.5kbits/s dup=1 drop=0 speed=6.49x    frame=15432 fps=155 q=32.0 size=   19988kB time=00:10:43.81 bitrate= 254.3kbits/s dup=1 drop=0 speed=6.47x    frame=15503 fps=155 q=32.0 size=   20073kB time=00:10:46.76 bitrate= 254.2kbits/s dup=1 drop=0 speed=6.46x    frame=15580 fps=155 q=32.0 size=   20163kB time=00:10:49.96 bitrate= 254.1kbits/s dup=1 drop=0 speed=6.46x    frame=15671 fps=155 q=32.0 size=   20233kB time=00:10:53.71 bitrate= 253.5kbits/s dup=1 drop=0 speed=6.47x    frame=15770 fps=155 q=32.0 size=   20313kB time=00:10:57.89 bitrate= 252.9kbits/s dup=1 drop=0 speed=6.47x    frame=15865 fps=155 q=32.0 size=   20381kB time=00:11:01.86 bitrate= 252.3kbits/s dup=1 drop=0 speed=6.48x    frame=15977 fps=156 q=32.0 size=   20470kB time=00:11:06.51 bitrate= 251.6kbits/s dup=1 drop=0 speed=6.49x    frame=16067 fps=156 q=32.0 size=   20529kB time=00:11:10.31 bitrate= 250.9kbits/s dup=1 drop=0 speed= 6.5x    frame=16183 fps=156 q=32.0 size=   20602kB time=00:11:15.09 bitrate= 250.0kbits/s dup=1 drop=0 speed=6.51x    frame=16315 fps=157 q=32.0 size=   20675kB time=00:11:20.64 bitrate= 248.8kbits/s dup=1 drop=0 speed=6.53x    frame=16388 fps=156 q=32.0 size=   20736kB time=00:11:23.67 bitrate= 248.5kbits/s dup=1 drop=0 speed=6.53x    frame=16430 fps=156 q=32.0 size=   20817kB time=00:11:25.41 bitrate= 248.8kbits/s dup=1 drop=0 speed=6.51x    frame=16516 fps=156 q=32.0 size=   20884kB time=00:11:29.00 bitrate= 248.3kbits/s dup=1 drop=0 speed=6.52x    frame=16615 fps=156 q=32.0 size=   20962kB time=00:11:33.14 bitrate= 247.7kbits/s dup=1 drop=0 speed=6.52x    frame=16706 fps=156 q=32.0 size=   21040kB time=00:11:36.93 bitrate= 247.3kbits/s dup=1 drop=0 speed=6.53x    frame=16785 fps=156 q=32.0 size=   21096kB time=00:11:40.26 bitrate= 246.8kbits/s dup=1 drop=0 speed=6.53x    frame=16876 fps=157 q=32.0 size=   21183kB time=00:11:44.02 bitrate= 246.5kbits/s dup=1 drop=0 speed=6.53x    frame=16969 fps=157 q=32.0 size=   21264kB time=00:11:47.94 bitrate= 246.1kbits/s dup=1 drop=0 speed=6.54x    frame=17065 fps=157 q=32.0 size=   21361kB time=00:11:51.91 bitrate= 245.8kbits/s dup=1 drop=0 speed=6.54x    frame=17150 fps=157 q=32.0 size=   21444kB time=00:11:55.45 bitrate= 245.5kbits/s dup=1 drop=0 speed=6.55x    frame=17224 fps=157 q=32.0 size=   21538kB time=00:11:58.52 bitrate= 245.6kbits/s dup=1 drop=0 speed=6.54x    frame=17316 fps=157 q=32.0 size=   21601kB time=00:12:02.36 bitrate= 245.0kbits/s dup=1 drop=0 speed=6.55x    frame=17411 fps=157 q=32.0 size=   21691kB time=00:12:06.33 bitrate= 244.6kbits/s dup=1 drop=0 speed=6.55x    frame=17521 fps=157 q=32.0 size=   21761kB time=00:12:10.90 bitrate= 243.9kbits/s dup=1 drop=0 speed=6.57x    frame=17602 fps=157 q=32.0 size=   21850kB time=00:12:14.31 bitrate= 243.8kbits/s dup=1 drop=0 speed=6.57x    frame=17688 fps=157 q=32.0 size=   21906kB time=00:12:17.89 bitrate= 243.2kbits/s dup=1 drop=0 speed=6.57x    frame=17741 fps=157 q=32.0 size=   22010kB time=00:12:20.11 bitrate= 243.6kbits/s dup=1 drop=0 speed=6.56x    frame=17825 fps=157 q=32.0 size=   22072kB time=00:12:23.61 bitrate= 243.1kbits/s dup=1 drop=0 speed=6.56x    frame=17892 fps=157 q=32.0 size=   22140kB time=00:12:26.39 bitrate= 243.0kbits/s dup=1 drop=0 speed=6.56x    frame=17958 fps=157 q=32.0 size=   22238kB time=00:12:29.16 bitrate= 243.2kbits/s dup=1 drop=0 speed=6.55x    frame=18004 fps=157 q=32.0 size=   22301kB time=00:12:31.08 bitrate= 243.2kbits/s dup=1 drop=0 speed=6.54x    frame=18089 fps=157 q=32.0 size=   22412kB time=00:12:34.62 bitrate= 243.3kbits/s dup=1 drop=0 speed=6.54x    frame=18197 fps=157 q=32.0 size=   22567kB time=00:12:39.10 bitrate= 243.5kbits/s dup=1 drop=0 speed=6.55x    frame=18339 fps=158 q=32.0 size=   22695kB time=00:12:45.03 bitrate= 243.0kbits/s dup=1 drop=0 speed=6.57x    frame=18448 fps=158 q=32.0 size=   22861kB time=00:12:49.60 bitrate= 243.3kbits/s dup=1 drop=0 speed=6.58x    frame=18595 fps=158 q=32.0 size=   23039kB time=00:12:55.74 bitrate= 243.3kbits/s dup=1 drop=0 speed=6.61x    frame=18727 fps=159 q=32.0 size=   23193kB time=00:13:01.20 bitrate= 243.2kbits/s dup=1 drop=0 speed=6.63x    frame=18889 fps=159 q=32.0 size=   23342kB time=00:13:07.99 bitrate= 242.7kbits/s dup=1 drop=0 speed=6.65x    frame=19000 fps=160 q=32.0 size=   23499kB time=00:13:12.64 bitrate= 242.9kbits/s dup=1 drop=0 speed=6.66x    frame=19125 fps=160 q=32.0 size=   23622kB time=00:13:17.84 bitrate= 242.5kbits/s dup=1 drop=0 speed=6.68x    frame=19228 fps=160 q=32.0 size=   23758kB time=00:13:22.11 bitrate= 242.6kbits/s dup=1 drop=0 speed=6.69x    frame=19370 fps=161 q=32.0 size=   23896kB time=00:13:28.04 bitrate= 242.3kbits/s dup=1 drop=0 speed=6.71x    frame=19497 fps=161 q=32.0 size=   24061kB time=00:13:33.33 bitrate= 242.3kbits/s dup=1 drop=0 speed=6.72x    frame=19638 fps=162 q=32.0 size=   24211kB time=00:13:39.22 bitrate= 242.1kbits/s dup=1 drop=0 speed=6.74x    frame=19778 fps=162 q=32.0 size=   24351kB time=00:13:45.06 bitrate= 241.8kbits/s dup=1 drop=0 speed=6.76x    frame=19866 fps=162 q=32.0 size=   24509kB time=00:13:48.73 bitrate= 242.3kbits/s dup=1 drop=0 speed=6.77x    frame=20020 fps=163 q=32.0 size=   24653kB time=00:13:55.13 bitrate= 241.8kbits/s dup=1 drop=0 speed=6.79x    frame=20135 fps=163 q=32.0 size=   24791kB time=00:13:59.95 bitrate= 241.8kbits/s dup=1 drop=0 speed= 6.8x    frame=20226 fps=163 q=32.0 size=   24955kB time=00:14:03.75 bitrate= 242.3kbits/s dup=1 drop=0 speed= 6.8x    frame=20243 fps=162 q=32.0 size=   24968kB time=00:14:04.48 bitrate= 242.2kbits/s dup=1 drop=0 speed=6.78x    frame=20405 fps=163 q=32.0 size=   25102kB time=00:14:11.22 bitrate= 241.6kbits/s dup=1 drop=0 speed=6.81x    frame=20542 fps=164 q=32.0 size=   25219kB time=00:14:16.93 bitrate= 241.1kbits/s dup=1 drop=0 speed=6.82x    frame=20630 fps=164 q=32.0 size=   25336kB time=00:14:20.60 bitrate= 241.2kbits/s dup=1 drop=0 speed=6.83x    frame=20742 fps=164 q=32.0 size=   25430kB time=00:14:25.25 bitrate= 240.8kbits/s dup=1 drop=0 speed=6.84x    frame=20855 fps=164 q=32.0 size=   25560kB time=00:14:29.95 bitrate= 240.7kbits/s dup=1 drop=0 speed=6.85x    frame=20956 fps=164 q=32.0 size=   25645kB time=00:14:34.21 bitrate= 240.3kbits/s dup=1 drop=0 speed=6.85x    frame=21077 fps=165 q=32.0 size=   25751kB time=00:14:39.25 bitrate= 239.9kbits/s dup=1 drop=0 speed=6.86x    frame=21210 fps=165 q=32.0 size=   25835kB time=00:14:44.75 bitrate= 239.2kbits/s dup=1 drop=0 speed=6.88x    frame=21330 fps=165 q=32.0 size=   25956kB time=00:14:49.79 bitrate= 239.0kbits/s dup=1 drop=0 speed=6.89x    frame=21418 fps=165 q=32.0 size=   26070kB time=00:14:53.46 bitrate= 239.0kbits/s dup=1 drop=0 speed=6.89x    frame=21545 fps=166 q=32.0 size=   26200kB time=00:14:58.75 bitrate= 238.8kbits/s dup=1 drop=0 speed=6.91x    frame=21643 fps=166 q=32.0 size=   26352kB time=00:15:02.84 bitrate= 239.1kbits/s dup=1 drop=0 speed=6.91x    frame=21791 fps=166 q=32.0 size=   26462kB time=00:15:09.03 bitrate= 238.5kbits/s dup=1 drop=0 speed=6.93x    frame=21897 fps=166 q=32.0 size=   26652kB time=00:15:13.43 bitrate= 239.0kbits/s dup=1 drop=0 speed=6.94x    frame=22024 fps=167 q=32.0 size=   26774kB time=00:15:18.76 bitrate= 238.7kbits/s dup=1 drop=0 speed=6.95x    frame=22153 fps=167 q=32.0 size=   26939kB time=00:15:24.13 bitrate= 238.8kbits/s dup=1 drop=0 speed=6.97x    frame=22276 fps=167 q=32.0 size=   27103kB time=00:15:29.25 bitrate= 238.9kbits/s dup=1 drop=0 speed=6.98x    frame=22381 fps=167 q=32.0 size=   27238kB time=00:15:33.61 bitrate= 239.0kbits/s dup=1 drop=0 speed=6.98x    frame=22479 fps=167 q=32.0 size=   27398kB time=00:15:37.70 bitrate= 239.4kbits/s dup=1 drop=0 speed=6.99x    frame=22589 fps=168 q=32.0 size=   27572kB time=00:15:42.31 bitrate= 239.7kbits/s dup=1 drop=0 speed=6.99x    frame=22738 fps=168 q=32.0 size=   27700kB time=00:15:48.50 bitrate= 239.2kbits/s dup=1 drop=0 speed=7.01x    frame=22836 fps=168 q=32.0 size=   27789kB time=00:15:52.59 bitrate= 239.0kbits/s dup=1 drop=0 speed=7.02x    frame=22890 fps=168 q=32.0 size=   27889kB time=00:15:54.85 bitrate= 239.3kbits/s dup=1 drop=0 speed=7.01x    frame=22967 fps=168 q=32.0 size=   28003kB time=00:15:58.05 bitrate= 239.4kbits/s dup=1 drop=0 speed=   7x    frame=23033 fps=168 q=32.0 size=   28075kB time=00:16:00.83 bitrate= 239.4kbits/s dup=1 drop=0 speed=   7x    frame=23103 fps=168 q=32.0 size=   28171kB time=00:16:03.73 bitrate= 239.5kbits/s dup=1 drop=0 speed=6.99x    frame=23175 fps=167 q=32.0 size=   28269kB time=00:16:06.76 bitrate= 239.5kbits/s dup=1 drop=0 speed=6.99x    frame=23266 fps=168 q=32.0 size=   28387kB time=00:16:10.51 bitrate= 239.6kbits/s dup=1 drop=0 speed=6.99x    frame=23332 fps=167 q=32.0 size=   28476kB time=00:16:13.29 bitrate= 239.7kbits/s dup=1 drop=0 speed=6.98x    frame=23404 fps=167 q=32.0 size=   28570kB time=00:16:16.27 bitrate= 239.7kbits/s dup=1 drop=0 speed=6.98x    frame=23487 fps=167 q=32.0 size=   28673kB time=00:16:19.73 bitrate= 239.7kbits/s dup=1 drop=0 speed=6.98x    frame=23585 fps=167 q=32.0 size=   28778kB time=00:16:23.87 bitrate= 239.6kbits/s dup=1 drop=0 speed=6.98x    frame=23673 fps=167 q=32.0 size=   28858kB time=00:16:27.54 bitrate= 239.4kbits/s dup=1 drop=0 speed=6.98x    frame=23754 fps=167 q=32.0 size=   28952kB time=00:16:30.87 bitrate= 239.4kbits/s dup=1 drop=0 speed=6.98x    frame=23845 fps=167 q=32.0 size=   29020kB time=00:16:34.71 bitrate= 239.0kbits/s dup=1 drop=0 speed=6.98x    frame=23890 fps=167 q=32.0 size=   29093kB time=00:16:36.58 bitrate= 239.1kbits/s dup=1 drop=0 speed=6.97x    frame=23945 fps=167 q=32.0 size=   29161kB time=00:16:38.84 bitrate= 239.2kbits/s dup=1 drop=0 speed=6.96x    frame=24045 fps=167 q=32.0 size=   29232kB time=00:16:43.07 bitrate= 238.7kbits/s dup=1 drop=0 speed=6.97x    frame=24102 fps=167 q=32.0 size=   29307kB time=00:16:45.41 bitrate= 238.8kbits/s dup=1 drop=0 speed=6.96x    frame=24164 fps=167 q=32.0 size=   29366kB time=00:16:47.97 bitrate= 238.7kbits/s dup=1 drop=0 speed=6.95x    frame=24200 fps=166 q=32.0 size=   29422kB time=00:16:49.51 bitrate= 238.8kbits/s dup=1 drop=0 speed=6.94x    frame=24243 fps=166 q=32.0 size=   29467kB time=00:16:51.30 bitrate= 238.7kbits/s dup=1 drop=0 speed=6.92x    frame=24282 fps=166 q=32.0 size=   29542kB time=00:16:52.92 bitrate= 238.9kbits/s dup=1 drop=0 speed=6.91x    frame=24347 fps=166 q=32.0 size=   29640kB time=00:16:55.61 bitrate= 239.1kbits/s dup=1 drop=0 speed=6.91x    frame=24442 fps=166 q=32.0 size=   29719kB time=00:16:59.58 bitrate= 238.8kbits/s dup=1 drop=0 speed=6.91x    frame=24534 fps=166 q=32.0 size=   29790kB time=00:17:03.42 bitrate= 238.5kbits/s dup=1 drop=0 speed=6.91x    frame=24649 fps=166 q=32.0 size=   29852kB time=00:17:08.24 bitrate= 237.8kbits/s dup=1 drop=0 speed=6.92x    frame=24739 fps=166 q=32.0 size=   29910kB time=00:17:11.95 bitrate= 237.4kbits/s dup=1 drop=0 speed=6.92x    frame=24833 fps=166 q=32.0 size=   29993kB time=00:17:15.92 bitrate= 237.2kbits/s dup=1 drop=0 speed=6.92x    frame=24904 fps=166 q=32.0 size=   30076kB time=00:17:18.87 bitrate= 237.2kbits/s dup=1 drop=0 speed=6.92x    frame=24972 fps=166 q=32.0 size=   30156kB time=00:17:21.68 bitrate= 237.1kbits/s dup=1 drop=0 speed=6.91x    frame=25037 fps=166 q=32.0 size=   30232kB time=00:17:24.41 bitrate= 237.1kbits/s dup=1 drop=0 speed=6.91x    frame=25097 fps=165 q=32.0 size=   30317kB time=00:17:26.89 bitrate= 237.2kbits/s dup=1 drop=0 speed= 6.9x    frame=25172 fps=165 q=32.0 size=   30375kB time=00:17:30.04 bitrate= 237.0kbits/s dup=1 drop=0 speed= 6.9x    frame=25243 fps=165 q=32.0 size=   30439kB time=00:17:32.99 bitrate= 236.8kbits/s dup=1 drop=0 speed= 6.9x    frame=25356 fps=166 q=32.0 size=   30514kB time=00:17:37.68 bitrate= 236.3kbits/s dup=1 drop=0 speed= 6.9x    frame=25487 fps=166 q=32.0 size=   30571kB time=00:17:43.19 bitrate= 235.6kbits/s dup=1 drop=0 speed=6.92x    frame=25553 fps=166 q=32.0 size=   30644kB time=00:17:45.92 bitrate= 235.5kbits/s dup=1 drop=0 speed=6.91x    frame=25648 fps=166 q=32.0 size=   30716kB time=00:17:49.88 bitrate= 235.2kbits/s dup=1 drop=0 speed=6.92x    frame=25661 fps=165 q=32.0 size=   30728kB time=00:17:50.44 bitrate= 235.2kbits/s dup=1 drop=0 speed=6.89x    frame=25755 fps=165 q=29.0 size=   30841kB time=00:17:54.36 bitrate= 235.2kbits/s dup=1 drop=0 speed=6.89x    frame=25860 fps=165 q=32.0 size=   31001kB time=00:17:58.72 bitrate= 235.4kbits/s dup=1 drop=0 speed= 6.9x    frame=25939 fps=165 q=32.0 size=   31167kB time=00:18:02.04 bitrate= 236.0kbits/s dup=1 drop=0 speed= 6.9x    frame=26008 fps=165 q=32.0 size=   31286kB time=00:18:04.90 bitrate= 236.2kbits/s dup=1 drop=0 speed=6.89x    frame=26091 fps=165 q=32.0 size=   31473kB time=00:18:08.36 bitrate= 236.9kbits/s dup=1 drop=0 speed=6.89x    frame=26162 fps=165 q=32.0 size=   31651kB time=00:18:11.30 bitrate= 237.6kbits/s dup=1 drop=0 speed=6.89x    frame=26246 fps=165 q=32.0 size=   31831kB time=00:18:14.84 bitrate= 238.2kbits/s dup=1 drop=0 speed=6.89x    frame=26329 fps=165 q=32.0 size=   32002kB time=00:18:18.30 bitrate= 238.7kbits/s dup=1 drop=0 speed=6.89x    frame=26450 fps=165 q=32.0 size=   32140kB time=00:18:23.33 bitrate= 238.6kbits/s dup=1 drop=0 speed= 6.9x    frame=26611 fps=166 q=32.0 size=   32275kB time=00:18:30.03 bitrate= 238.2kbits/s dup=1 drop=0 speed=6.92x    frame=26721 fps=166 q=32.0 size=   32431kB time=00:18:34.64 bitrate= 238.4kbits/s dup=1 drop=0 speed=6.93x    frame=26833 fps=166 q=32.0 size=   32586kB time=00:18:39.29 bitrate= 238.5kbits/s dup=1 drop=0 speed=6.93x    frame=26958 fps=166 q=32.0 size=   32734kB time=00:18:44.54 bitrate= 238.5kbits/s dup=1 drop=0 speed=6.94x    frame=27099 fps=167 q=32.0 size=   32885kB time=00:18:50.43 bitrate= 238.3kbits/s dup=1 drop=0 speed=6.96x    frame=27208 fps=167 q=32.0 size=   33033kB time=00:18:54.95 bitrate= 238.4kbits/s dup=1 drop=0 speed=6.96x    frame=27300 fps=167 q=32.0 size=   33177kB time=00:18:58.79 bitrate= 238.7kbits/s dup=1 drop=0 speed=6.97x    frame=27437 fps=167 q=32.0 size=   33305kB time=00:19:04.51 bitrate= 238.4kbits/s dup=1 drop=0 speed=6.98x    frame=27581 fps=168 q=32.0 size=   33463kB time=00:19:10.52 bitrate= 238.3kbits/s dup=1 drop=0 speed=6.99x    frame=27717 fps=168 q=32.0 size=   33585kB time=00:19:16.20 bitrate= 238.0kbits/s dup=1 drop=0 speed=7.01x    frame=27862 fps=168 q=32.0 size=   33708kB time=00:19:22.26 bitrate= 237.6kbits/s dup=1 drop=0 speed=7.02x    frame=27978 fps=169 q=32.0 size=   33816kB time=00:19:27.08 bitrate= 237.4kbits/s dup=1 drop=0 speed=7.03x    frame=28140 fps=169 q=32.0 size=   33961kB time=00:19:33.82 bitrate= 237.0kbits/s dup=1 drop=0 speed=7.05x    frame=28269 fps=169 q=32.0 size=   34075kB time=00:19:39.20 bitrate= 236.7kbits/s dup=1 drop=0 speed=7.06x    frame=28381 fps=169 q=32.0 size=   34185kB time=00:19:43.85 bitrate= 236.6kbits/s dup=1 drop=0 speed=7.07x    frame=28513 fps=170 q=32.0 size=   34328kB time=00:19:49.39 bitrate= 236.4kbits/s dup=1 drop=0 speed=7.08x    frame=28653 fps=170 q=32.0 size=   34470kB time=00:19:55.24 bitrate= 236.2kbits/s dup=1 drop=0 speed=7.09x    frame=28809 fps=170 q=32.0 size=   34579kB time=00:20:01.77 bitrate= 235.7kbits/s dup=1 drop=0 speed=7.11x    frame=28892 fps=170 q=32.0 size=   34701kB time=00:20:05.22 bitrate= 235.9kbits/s dup=1 drop=0 speed=7.11x    frame=28997 fps=171 q=32.0 size=   34835kB time=00:20:09.57 bitrate= 235.9kbits/s dup=1 drop=0 speed=7.11x    frame=29089 fps=171 q=32.0 size=   34949kB time=00:20:13.41 bitrate= 235.9kbits/s dup=1 drop=0 speed=7.11x    frame=29142 fps=170 q=32.0 size=   35061kB time=00:20:15.63 bitrate= 236.3kbits/s dup=1 drop=0 speed=7.11x    frame=29241 fps=170 q=32.0 size=   35199kB time=00:20:19.73 bitrate= 236.4kbits/s dup=1 drop=0 speed=7.11x    frame=29413 fps=171 q=32.0 size=   35341kB time=00:20:26.94 bitrate= 236.0kbits/s dup=1 drop=0 speed=7.13x    frame=29504 fps=171 q=32.0 size=   35453kB time=00:20:30.69 bitrate= 236.0kbits/s dup=1 drop=0 speed=7.13x    frame=29607 fps=171 q=32.0 size=   35580kB time=00:20:35.00 bitrate= 236.0kbits/s dup=1 drop=0 speed=7.14x    frame=29739 fps=171 q=32.0 size=   35701kB time=00:20:40.55 bitrate= 235.7kbits/s dup=1 drop=0 speed=7.15x    frame=29859 fps=172 q=32.0 size=   35820kB time=00:20:45.54 bitrate= 235.6kbits/s dup=1 drop=0 speed=7.15x    frame=29977 fps=172 q=32.0 size=   35955kB time=00:20:50.45 bitrate= 235.6kbits/s dup=1 drop=0 speed=7.16x    frame=30064 fps=172 q=32.0 size=   36063kB time=00:20:54.03 bitrate= 235.6kbits/s dup=1 drop=0 speed=7.16x    frame=30150 fps=172 q=32.0 size=   36131kB time=00:20:57.66 bitrate= 235.3kbits/s dup=1 drop=0 speed=7.16x    frame=30192 fps=171 q=32.0 size=   36223kB time=00:20:59.41 bitrate= 235.6kbits/s dup=1 drop=0 speed=7.14x    frame=30233 fps=171 q=32.0 size=   36320kB time=00:21:01.12 bitrate= 235.9kbits/s dup=1 drop=0 speed=7.13x    frame=30282 fps=171 q=32.0 size=   36388kB time=00:21:03.16 bitrate= 236.0kbits/s dup=1 drop=0 speed=7.12x    frame=30326 fps=171 q=32.0 size=   36481kB time=00:21:05.00 bitrate= 236.2kbits/s dup=1 drop=0 speed=7.11x    frame=30402 fps=170 q=32.0 size=   36559kB time=00:21:08.16 bitrate= 236.2kbits/s dup=1 drop=0 speed=7.11x    frame=30499 fps=171 q=32.0 size=   36641kB time=00:21:12.21 bitrate= 235.9kbits/s dup=1 drop=0 speed=7.11x    frame=30577 fps=170 q=32.0 size=   36754kB time=00:21:15.49 bitrate= 236.1kbits/s dup=1 drop=0 speed=7.11x    frame=30660 fps=170 q=32.0 size=   36849kB time=00:21:18.95 bitrate= 236.0kbits/s dup=1 drop=0 speed=7.11x    frame=30735 fps=170 q=32.0 size=   36927kB time=00:21:22.07 bitrate= 236.0kbits/s dup=1 drop=0 speed=7.11x    frame=30803 fps=170 q=32.0 size=   37009kB time=00:21:24.92 bitrate= 236.0kbits/s dup=1 drop=0 speed= 7.1x    frame=30879 fps=170 q=32.0 size=   37089kB time=00:21:28.08 bitrate= 235.9kbits/s dup=1 drop=0 speed= 7.1x    frame=30974 fps=170 q=32.0 size=   37206kB time=00:21:32.05 bitrate= 235.9kbits/s dup=1 drop=0 speed= 7.1x    frame=31061 fps=170 q=32.0 size=   37275kB time=00:21:35.68 bitrate= 235.7kbits/s dup=1 drop=0 speed= 7.1x    frame=31142 fps=170 q=32.0 size=   37363kB time=00:21:39.05 bitrate= 235.6kbits/s dup=1 drop=0 speed= 7.1x    frame=31228 fps=170 q=32.0 size=   37452kB time=00:21:42.63 bitrate= 235.5kbits/s dup=1 drop=0 speed= 7.1x    frame=31311 fps=170 q=32.0 size=   37539kB time=00:21:46.04 bitrate= 235.5kbits/s dup=1 drop=0 speed= 7.1x    frame=31370 fps=170 q=32.0 size=   37606kB time=00:21:48.56 bitrate= 235.4kbits/s dup=1 drop=0 speed= 7.1x    frame=31400 fps=170 q=32.0 size=   37728kB time=00:21:49.80 bitrate= 236.0kbits/s dup=1 drop=0 speed=7.08x    frame=31432 fps=169 q=32.0 size=   37794kB time=00:21:51.12 bitrate= 236.1kbits/s dup=1 drop=0 speed=7.07x    frame=31506 fps=169 q=32.0 size=   37865kB time=00:21:54.19 bitrate= 236.0kbits/s dup=1 drop=0 speed=7.07x    frame=31577 fps=169 q=32.0 size=   37927kB time=00:21:57.18 bitrate= 235.9kbits/s dup=1 drop=0 speed=7.06x    frame=31645 fps=169 q=32.0 size=   37990kB time=00:22:00.04 bitrate= 235.8kbits/s dup=1 drop=0 speed=7.06x    frame=31687 fps=169 q=32.0 size=   38065kB time=00:22:01.79 bitrate= 235.9kbits/s dup=1 drop=0 speed=7.05x    frame=31754 fps=169 q=32.0 size=   38154kB time=00:22:04.56 bitrate= 236.0kbits/s dup=1 drop=0 speed=7.05x    frame=31823 fps=169 q=32.0 size=   38225kB time=00:22:07.42 bitrate= 235.9kbits/s dup=1 drop=0 speed=7.04x    frame=31888 fps=169 q=32.0 size=   38277kB time=00:22:10.15 bitrate= 235.7kbits/s dup=1 drop=0 speed=7.04x    frame=31953 fps=169 q=32.0 size=   38335kB time=00:22:12.84 bitrate= 235.6kbits/s dup=1 drop=0 speed=7.03x    frame=32041 fps=169 q=32.0 size=   38405kB time=00:22:16.55 bitrate= 235.4kbits/s dup=1 drop=0 speed=7.03x    frame=32085 fps=168 q=32.0 size=   38456kB time=00:22:18.34 bitrate= 235.4kbits/s dup=1 drop=0 speed=7.02x    frame=32135 fps=168 q=32.0 size=   38540kB time=00:22:20.43 bitrate= 235.5kbits/s dup=1 drop=0 speed=7.02x    frame=32190 fps=168 q=29.0 size=   38628kB time=00:22:22.74 bitrate= 235.7kbits/s dup=1 drop=0 speed=7.01x    frame=32234 fps=168 q=32.0 size=   38762kB time=00:22:24.57 bitrate= 236.2kbits/s dup=1 drop=0 speed=   7x    frame=32278 fps=168 q=32.0 size=   38869kB time=00:22:26.41 bitrate= 236.5kbits/s dup=1 drop=0 speed=6.99x    frame=32318 fps=167 q=32.0 size=   38966kB time=00:22:28.07 bitrate= 236.8kbits/s dup=1 drop=0 speed=6.98x    frame=32362 fps=167 q=32.0 size=   39068kB time=00:22:29.91 bitrate= 237.1kbits/s dup=1 drop=0 speed=6.97x    frame=32406 fps=167 q=32.0 size=   39158kB time=00:22:31.74 bitrate= 237.3kbits/s dup=1 drop=0 speed=6.96x    frame=32454 fps=167 q=32.0 size=   39279kB time=00:22:33.75 bitrate= 237.7kbits/s dup=1 drop=0 speed=6.95x    frame=32496 fps=167 q=32.0 size=   39349kB time=00:22:35.49 bitrate= 237.8kbits/s dup=1 drop=0 speed=6.95x    frame=32524 fps=166 q=32.0 size=   39475kB time=00:22:36.65 bitrate= 238.4kbits/s dup=1 drop=0 speed=6.93x    frame=32550 fps=166 q=29.0 size=   39573kB time=00:22:37.76 bitrate= 238.8kbits/s dup=1 drop=0 speed=6.92x    frame=32589 fps=166 q=32.0 size=   39693kB time=00:22:39.38 bitrate= 239.2kbits/s dup=1 drop=0 speed=6.91x    frame=32641 fps=165 q=32.0 size=   39803kB time=00:22:41.55 bitrate= 239.5kbits/s dup=1 drop=0 speed= 6.9x    frame=32695 fps=165 q=32.0 size=   39899kB time=00:22:43.81 bitrate= 239.7kbits/s dup=1 drop=0 speed= 6.9x    frame=32746 fps=165 q=32.0 size=   39993kB time=00:22:45.95 bitrate= 239.8kbits/s dup=1 drop=0 speed=6.89x    frame=32790 fps=165 q=32.0 size=   40088kB time=00:22:47.78 bitrate= 240.1kbits/s dup=1 drop=0 speed=6.88x    frame=32838 fps=165 q=32.0 size=   40217kB time=00:22:49.79 bitrate= 240.5kbits/s dup=1 drop=0 speed=6.87x    frame=32885 fps=165 q=32.0 size=   40314kB time=00:22:51.75 bitrate= 240.8kbits/s dup=1 drop=0 speed=6.87x    frame=32929 fps=164 q=32.0 size=   40413kB time=00:22:53.54 bitrate= 241.0kbits/s dup=1 drop=0 speed=6.86x    frame=32984 fps=164 q=32.0 size=   40518kB time=00:22:55.85 bitrate= 241.2kbits/s dup=1 drop=0 speed=6.85x    frame=33036 fps=164 q=32.0 size=   40625kB time=00:22:58.02 bitrate= 241.5kbits/s dup=1 drop=0 speed=6.84x    frame=33085 fps=164 q=32.0 size=   40757kB time=00:23:00.07 bitrate= 241.9kbits/s dup=1 drop=0 speed=6.84x    frame=33151 fps=164 q=32.0 size=   40848kB time=00:23:02.84 bitrate= 242.0kbits/s dup=1 drop=0 speed=6.83x    frame=33217 fps=164 q=32.0 size=   40941kB time=00:23:05.57 bitrate= 242.1kbits/s dup=1 drop=0 speed=6.83x    frame=33287 fps=164 q=32.0 size=   41027kB time=00:23:08.48 bitrate= 242.1kbits/s dup=1 drop=0 speed=6.83x    frame=33337 fps=164 q=32.0 size=   41141kB time=00:23:10.57 bitrate= 242.4kbits/s dup=1 drop=0 speed=6.82x    frame=33386 fps=163 q=32.0 size=   41291kB time=00:23:12.61 bitrate= 242.9kbits/s dup=1 drop=0 speed=6.81x    frame=33440 fps=163 q=32.0 size=   41368kB time=00:23:14.88 bitrate= 242.9kbits/s dup=1 drop=0 speed=6.79x    frame=33504 fps=163 q=32.0 size=   41512kB time=00:23:17.52 bitrate= 243.3kbits/s dup=1 drop=0 speed=6.79x    frame=33547 fps=163 q=32.0 size=   41640kB time=00:23:19.36 bitrate= 243.8kbits/s dup=1 drop=0 speed=6.78x    frame=33593 fps=162 q=32.0 size=   41757kB time=00:23:21.28 bitrate= 244.1kbits/s dup=1 drop=0 speed=6.77x    frame=33652 fps=162 q=32.0 size=   41856kB time=00:23:23.71 bitrate= 244.3kbits/s dup=1 drop=0 speed=6.77x    frame=33690 fps=162 q=32.0 size=   41983kB time=00:23:25.33 bitrate= 244.7kbits/s dup=1 drop=0 speed=6.76x    frame=33748 fps=162 q=32.0 size=   42131kB time=00:23:27.72 bitrate= 245.2kbits/s dup=1 drop=0 speed=6.75x    frame=33811 fps=162 q=32.0 size=   42257kB time=00:23:30.36 bitrate= 245.4kbits/s dup=1 drop=0 speed=6.75x    frame=33886 fps=162 q=32.0 size=   42365kB time=00:23:33.48 bitrate= 245.5kbits/s dup=1 drop=0 speed=6.75x    frame=33965 fps=162 q=32.0 size=   42477kB time=00:23:36.81 bitrate= 245.6kbits/s dup=1 drop=0 speed=6.75x    frame=34027 fps=162 q=32.0 size=   42577kB time=00:23:39.37 bitrate= 245.7kbits/s dup=1 drop=0 speed=6.74x    frame=34105 fps=162 q=32.0 size=   42669kB time=00:23:42.61 bitrate= 245.7kbits/s dup=1 drop=0 speed=6.74x    frame=34237 fps=162 q=32.0 size=   42776kB time=00:23:48.16 bitrate= 245.4kbits/s dup=1 drop=0 speed=6.75x    frame=34368 fps=162 q=32.0 size=   42903kB time=00:23:53.57 bitrate= 245.2kbits/s dup=1 drop=0 speed=6.76x    frame=34454 fps=162 q=32.0 size=   43020kB time=00:23:57.16 bitrate= 245.2kbits/s dup=1 drop=0 speed=6.76x    frame=34569 fps=162 q=32.0 size=   43142kB time=00:24:01.94 bitrate= 245.1kbits/s dup=1 drop=0 speed=6.77x    frame=34676 fps=162 q=32.0 size=   43232kB time=00:24:06.42 bitrate= 244.9kbits/s dup=1 drop=0 speed=6.77x    frame=34793 fps=163 q=32.0 size=   43352kB time=00:24:11.32 bitrate= 244.7kbits/s dup=1 drop=0 speed=6.78x    frame=34917 fps=163 q=32.0 size=   43475kB time=00:24:16.49 bitrate= 244.5kbits/s dup=1 drop=0 speed=6.79x    frame=35044 fps=163 q=32.0 size=   43602kB time=00:24:21.78 bitrate= 244.3kbits/s dup=1 drop=0 speed= 6.8x    [mp4 @ 0x3911020] Starting second pass: moving the moov atom to the beginning of the file
frame=35165 fps=163 q=-1.0 Lsize=   44584kB time=00:24:26.64 bitrate= 249.0kbits/s dup=1 drop=0 speed= 6.8x    
video:34245kB audio:9505kB subtitle:0kB other streams:0kB global headers:0kB muxing overhead: 1.906139%
[libx264 @ 0x3981a40] frame I:292   Avg QP:21.33  size: 15583
[libx264 @ 0x3981a40] frame P:10509 Avg QP:23.64  size:  2305
[libx264 @ 0x3981a40] frame B:24364 Avg QP:29.29  size:   258
[libx264 @ 0x3981a40] consecutive B-frames:  2.3% 15.1%  2.8% 79.8%
[libx264 @ 0x3981a40] mb I  I16..4: 29.1% 51.5% 19.4%
[libx264 @ 0x3981a40] mb P  I16..4:  5.4%  4.6%  1.2%  P16..4: 25.2%  4.0%  3.7%  0.1%  0.0%    skip:55.7%
[libx264 @ 0x3981a40] mb B  I16..4:  0.2%  0.2%  0.0%  B16..8: 10.6%  0.8%  0.1%  direct: 0.2%  skip:88.0%  L0:42.4% L1:55.9% BI: 1.7%
[libx264 @ 0x3981a40] 8x8 transform intra:43.1% inter:60.0%
[libx264 @ 0x3981a40] coded y,uvDC,uvAC intra: 29.4% 57.2% 9.2% inter: 1.3% 3.3% 0.0%
[libx264 @ 0x3981a40] i16 v,h,dc,p: 44% 30% 19%  6%
[libx264 @ 0x3981a40] i8 v,h,dc,ddl,ddr,vr,hd,vl,hu: 24% 19% 40%  3%  2%  3%  3%  3%  3%
[libx264 @ 0x3981a40] i4 v,h,dc,ddl,ddr,vr,hd,vl,hu: 31% 18% 20%  5%  5%  6%  5%  6%  4%
[libx264 @ 0x3981a40] i8c dc,h,v,p: 42% 26% 26%  5%
[libx264 @ 0x3981a40] Weighted P-Frames: Y:1.3% UV:1.0%
[libx264 @ 0x3981a40] ref P L0: 65.8%  9.9% 10.4%  3.7%  2.9%  2.6%  2.6%  1.9%  0.2%  0.0%
[libx264 @ 0x3981a40] ref B L0: 86.7%  5.3%  3.7%  1.3%  1.0%  1.1%  0.8%
[libx264 @ 0x3981a40] ref B L1: 97.1%  2.9%
[libx264 @ 0x3981a40] kb/s:191.27
